<svg aria-hidden="true" style="position: absolute; width: 0; height: 0; overflow: hidden;" version="1.1" xmlns="http://www.w3.org/2000/svg" xmlns:xlink="http://www.w3.org/1999/xlink">
<defs>
<symbol id="antenna" viewBox="0 0 30 32">
<path d="M29.779 22.102l-8.445-8.507 0.937-4.616c0.242 0.094 0.499 0.144 0.759 0.145h0.006c0.008 0 0.017 0 0.026 0 1.193 0 2.159-0.967 2.159-2.159s-0.967-2.159-2.159-2.159c-1.193 0-2.159 0.967-2.159 2.159 0 0.26 0.046 0.508 0.13 0.739l-0.005-0.015-4.961 0.605-8.093-8.134c-0.096-0.098-0.229-0.159-0.376-0.16h-0c-0.14 0.001-0.274 0.057-0.374 0.155l-1.513 1.504c-0.097 0.097-0.156 0.23-0.156 0.377s0.060 0.281 0.156 0.377v0l0.814 0.825c-1.143 2.063-1.816 4.523-1.816 7.14 0 4.107 1.656 7.827 4.337 10.528l-0.001-0.001c0.042 0.041 0.092 0.074 0.146 0.098-0.032 0.164-0.051 0.353-0.052 0.546v6.189h-6.401c-1.473 0.001-2.666 1.195-2.668 2.667v1.067c0.001 0.295 0.24 0.534 0.534 0.534h24.539c0.295 0 0.534-0.239 0.534-0.534v-1.067c-0.002-1.472-1.195-2.665-2.667-2.667h-6.402v-2.743c1.003 0.21 2.024 0.318 3.049 0.32 2.58-0.003 5.006-0.663 7.119-1.823l-0.077 0.039 0.819 0.823c0.099 0.101 0.235 0.159 0.377 0.16 0.14-0.001 0.274-0.056 0.373-0.155l1.513-1.505c0.096-0.097 0.156-0.23 0.156-0.377s-0.060-0.281-0.156-0.377v0zM22.285 6.234c0.193-0.192 0.459-0.31 0.752-0.31 0.589 0 1.067 0.478 1.067 1.067s-0.478 1.067-1.067 1.067c-0 0-0 0-0 0h-0.003c-0.587-0.003-1.061-0.479-1.061-1.067 0-0.296 0.12-0.563 0.315-0.757l0-0h-0.002zM21.029 9.74l-0.599 2.946-1.176-1.182 1.774-1.764zM20.423 8.838l-1.92 1.909-1.485-1.494 3.406-0.415zM23.009 28.806c0.884 0 1.6 0.716 1.6 1.6v0 0.534h-23.472v-0.534c0-0.884 0.716-1.6 1.6-1.6h20.271zM15.541 26.672v1.067h-5.335v-1.067h5.335zM10.206 25.606v-4.054c0-1.294 1.197-2.347 2.667-2.347s2.668 1.053 2.668 2.347v4.054h-5.335zM16.607 23.909v-2.358c0-1.882-1.675-3.414-3.734-3.414-0.018-0-0.038-0-0.059-0-1.353 0-2.541 0.707-3.214 1.771l-0.009 0.016c-2.36-2.482-3.812-5.847-3.812-9.552 0-2.315 0.567-4.497 1.569-6.415l-0.036 0.077 18.606 18.713c-1.823 0.947-3.98 1.502-6.268 1.502-1.079 0-2.129-0.124-3.137-0.357l0.093 0.018zM27.899 23.226l-21.062-21.185 0.755-0.752 7.937 7.982c0.004 0 0.005 0.007 0.009 0.009l13.117 13.194-0.757 0.752z"></path>
</symbol>
<symbol id="astronaut" viewBox="0 0 32 32">
<path fill="#4d5ae5" style="fill: var(--color1, #4d5ae5)" d="M31.981 4.525c-0.064-0.191-0.227-0.332-0.427-0.362l-0.003-0-1.911-0.278-0.855-1.731c-0.179-0.365-0.777-0.365-0.956 0l-0.855 1.731-1.91 0.278c-0.26 0.039-0.457 0.26-0.457 0.528 0 0.15 0.061 0.285 0.161 0.382l1.383 1.348-0.327 1.903c-0.034 0.2 0.048 0.402 0.212 0.522 0.166 0.121 0.383 0.136 0.562 0.040l1.709-0.899 1.709 0.899c0.072 0.038 0.157 0.061 0.247 0.061 0.295 0 0.534-0.239 0.534-0.534 0-0.031-0.003-0.062-0.008-0.092l0 0.003-0.326-1.903 1.383-1.348c0.099-0.097 0.161-0.233 0.161-0.383 0-0.059-0.009-0.115-0.027-0.168l0.001 0.004zM29.517 5.852c-0.125 0.122-0.183 0.299-0.153 0.472l0.191 1.114-1.001-0.526c-0.072-0.039-0.158-0.062-0.249-0.062s-0.177 0.023-0.251 0.063l0.003-0.001-1.001 0.526 0.191-1.114c0.005-0.027 0.008-0.058 0.008-0.090 0-0.15-0.061-0.285-0.161-0.382l-0.81-0.79 1.119-0.163c0.174-0.025 0.324-0.135 0.402-0.292l0.5-1.013 0.501 1.013c0.078 0.158 0.228 0.267 0.402 0.292l1.119 0.163-0.809 0.79zM26.139 20.527h-1.067v1.067h1.067v-1.067zM26.139 22.66h-1.067v1.067h1.067v-1.068z"></path>
<path fill="#4d5ae5" style="fill: var(--color1, #4d5ae5)" d="M27.206 21.594h-1.067v1.067h1.067v-1.067zM25.073 21.594h-1.067v1.067h1.067v-1.067zM22.405 26.395h-1.067v1.067h1.067v-1.067zM22.405 28.529h-1.067v1.067h1.067v-1.067zM23.472 27.462h-1.067v1.067h1.067v-1.068z"></path>
<path fill="#4d5ae5" style="fill: var(--color1, #4d5ae5)" d="M21.338 27.462h-1.067v1.067h1.067v-1.068zM16.004 24.261h-1.067v1.067h1.067v-1.068zM16.004 26.395h-1.067v1.067h1.067v-1.067zM17.070 25.328h-1.067v1.067h1.067v-1.067zM14.937 25.328h-1.067v1.067h1.067v-1.067zM5.868 6.123h-1.067v1.067h1.067v-1.067zM5.868 8.257h-1.067v1.067h1.067v-1.067zM6.935 7.19h-1.067v1.067h1.067v-1.067zM4.801 7.19h-1.067v1.067h1.067v-1.067z"></path>
<path fill="#2e2f42" style="fill: var(--color2, #2e2f42)" d="M24.72 14.163c-0.28-0.377-0.699-0.637-1.179-0.704l-0.009-0.001c-0.076-0.012-0.164-0.018-0.254-0.018-0.411 0-0.789 0.14-1.090 0.374l0.004-0.003-1.252 0.96-1.898 1.418-1.358-0.541c2.422-1.086 4.114-3.509 4.114-6.321 0-3.824-3.123-6.935-6.963-6.935s-6.963 3.111-6.963 6.935c0 1.386 0.414 2.675 1.12 3.759l-2.77-0.024c-0.008 0-0.015 0.005-0.024 0.005-0.053 0.002-0.105 0.012-0.155 0.030-0.013 0.005-0.026 0.008-0.038 0.014-0.006 0.002-0.013 0.003-0.019 0.007l-3.235 1.597-1.894 0.911c-0.024 0.011-0.045 0.023-0.064 0.036l0.001-0.001c-0.482 0.324-0.794 0.867-0.794 1.482 0 0.297 0.073 0.576 0.201 0.822l-0.005-0.010c0.22 0.429 0.595 0.745 1.056 0.89 0.161 0.053 0.345 0.083 0.537 0.083 0.308 0 0.598-0.078 0.851-0.216l-0.009 0.005 1.388-0.738 2.264-1.17 1.357-0.008-5.443 5.416c0 0.001-0.001 0.001-0.002 0.002l-1.339 1.333c-0.303 0.299-0.49 0.714-0.49 1.173 0 0.002 0 0.003 0 0.005v-0c0 0.445 0.174 0.864 0.49 1.179 0.325 0.324 0.752 0.485 1.179 0.485s0.855-0.162 1.18-0.485l1.315-1.309 1.741-1.3 0.901 0.897-3.103 3.089c-0.303 0.299-0.49 0.714-0.49 1.173 0 0.002 0 0.003 0 0.005v-0c0 0.445 0.174 0.864 0.49 1.179 0.325 0.323 0.753 0.485 1.18 0.485s0.855-0.162 1.18-0.485l3.483-3.467c0-0.001 0-0.002 0.001-0.002l1.010-1-0.004-0.003c0.007-0.006 0.015-0.009 0.022-0.015l5.167-5.659 3.472 0.494c0.020 0.003 0.044 0.004 0.068 0.004 0.070 0 0.137-0.014 0.198-0.039l-0.004 0.001c0.017-0.006 0.033-0.015 0.050-0.023 0.019-0.009 0.039-0.015 0.057-0.027l3.214-2.134c0.012-0.008 0.018-0.020 0.029-0.029 0.012-0.010 0.029-0.014 0.040-0.025l1.272-1.192c0.347-0.326 0.564-0.787 0.564-1.299 0-0.4-0.132-0.77-0.355-1.067l0.003 0.005zM2.13 17.774c-0.173 0.093-0.37 0.112-0.558 0.052-0.295-0.093-0.505-0.364-0.505-0.684 0-0.236 0.114-0.445 0.29-0.575l0.002-0.001 1.314-0.632 0.316 0.925 0.133 0.388-0.993 0.528zM5.629 15.946l-1.549 0.8-0.255-0.747-0.184-0.537 2.027-1-0.040 1.484zM20.732 9.324c0 0.919-0.219 1.785-0.599 2.56l-4.182-1.899c-0.043-0.575-0.342-1.073-0.782-1.384l-0.006-0.004 1.464-4.861c2.378 0.756 4.105 2.974 4.105 5.588zM8.94 9.324c0-3.236 2.645-5.868 5.896-5.868 0.253 0 0.5 0.022 0.745 0.053l-1.432 4.755c-0.019 0-0.037-0.005-0.057-0.005-0 0-0 0-0.001 0-1.032 0-1.869 0.835-1.872 1.867v0c0.003 1.032 0.84 1.867 1.872 1.867 0 0 0 0 0.001 0h-0c0.695 0 1.295-0.383 1.618-0.945l3.863 1.755c-1.075 1.447-2.796 2.391-4.738 2.391-3.251 0-5.896-2.633-5.896-5.868zM14.898 10.124c0 0.441-0.362 0.8-0.806 0.8-0.001 0-0.001 0-0.002 0-0.443 0-0.802-0.358-0.804-0.8v-0c0-0.441 0.362-0.8 0.806-0.8s0.806 0.359 0.806 0.8zM2.465 25.152c-0.11 0.108-0.261 0.175-0.428 0.175s-0.317-0.067-0.427-0.175l0 0c-0.109-0.108-0.176-0.257-0.176-0.422s0.068-0.315 0.176-0.422l0-0 0.962-0.959 0.851 0.848-0.959 0.955zM5.68 28.886c-0.11 0.109-0.261 0.176-0.428 0.176s-0.317-0.067-0.427-0.175l0 0c-0.109-0.108-0.176-0.257-0.176-0.422s0.067-0.315 0.176-0.422l0-0 0.963-0.959 0.852 0.848-0.96 0.955zM9.163 25.417l-0.002 0.001-1.765 1.76-0.852-0.848 1.764-1.756s0.001 0 0.002-0.001c0.040-0.040 0.065-0.088 0.090-0.135 0.007-0.014 0.020-0.026 0.026-0.040 0.017-0.041 0.019-0.086 0.025-0.129 0.004-0.024 0.014-0.047 0.014-0.073 0-0.035-0.012-0.070-0.020-0.106-0.007-0.032-0.007-0.065-0.018-0.096-0.020-0.050-0.055-0.095-0.092-0.138-0.010-0.012-0.014-0.027-0.025-0.038h-0.001l-0.001-0.002-1.607-1.6c-0.017-0.017-0.039-0.024-0.058-0.038-0.025-0.021-0.054-0.040-0.084-0.056l-0.003-0.001c-0.027-0.013-0.058-0.024-0.090-0.032l-0.003-0.001c-0.030-0.009-0.065-0.017-0.101-0.020l-0.002-0c-0.006-0-0.013-0-0.020-0-0.026 0-0.052 0.002-0.077 0.006l0.003-0c-0.039 0.004-0.074 0.011-0.108 0.021l0.004-0.001c-0.036 0.013-0.067 0.028-0.096 0.046l0.002-0.001c-0.020 0.011-0.043 0.015-0.061 0.029l-1.774 1.324-0.901-0.897 2.4-2.387 4.361 4.29-0.927 0.919zM15.983 18.398c-0.015-0.002-0.030 0.004-0.045 0.003-0.008-0-0.017-0.001-0.026-0.001-0.031 0-0.062 0.003-0.092 0.008l0.003-0c-0.070 0.011-0.132 0.035-0.187 0.069l0.002-0.001c-0.030 0.018-0.057 0.038-0.083 0.061-0.013 0.011-0.028 0.017-0.040 0.029l-4.7 5.147-4.329-4.258 2.834-2.819c0.096-0.097 0.156-0.23 0.156-0.377 0-0.295-0.239-0.534-0.534-0.534-0 0-0.001 0-0.001 0h0l-2.219 0.013 0.027-1.608 3.105 0.027c1.264 1.297 3.028 2.101 4.979 2.101 0.001 0 0.002 0 0.003 0h-0c0.438 0 0.864-0.045 1.28-0.123 0.040 0.032 0.080 0.064 0.13 0.085l2.41 0.96 0.153 0.758 0.179 0.885-3.004-0.427zM20.025 18.577l-0.314-1.558 1.447-1.080 0.947 1.257-2.080 1.382zM23.779 15.745l-0.838 0.785-0.931-1.237 0.832-0.637c0.155-0.12 0.351-0.168 0.543-0.143 0.194 0.027 0.364 0.128 0.48 0.284 0.217 0.292 0.18 0.699-0.085 0.948z"></path>
<path fill="#2e2f42" style="fill: var(--color2, #2e2f42)" d="M13.605 18.548l-2.143-2.134c-0.096-0.096-0.229-0.155-0.376-0.155s-0.28 0.059-0.376 0.156l-2.143 2.134c-0.097 0.097-0.156 0.231-0.156 0.378s0.060 0.281 0.156 0.378l-0-0 2.143 2.133c0.096 0.096 0.229 0.155 0.376 0.155s0.28-0.059 0.376-0.156l2.143-2.133c0.097-0.097 0.157-0.23 0.157-0.378s-0.060-0.282-0.157-0.378l-0-0zM11.085 20.307l-1.387-1.381 1.387-1.381 1.388 1.381-1.388 1.381zM17.168 5.072l-0.258 1.036c0.071 0.018 1.738 0.452 1.738 2.149h1.067c0-2.017-1.666-2.966-2.547-3.186zM19.715 9.324h-1.067v1.067h1.067v-1.067z"></path>
</symbol>
<symbol id="computer" viewBox="0 0 41 32">
<path d="M2.047 31.736h32.758c0 0 0 0 0.001 0 1.131 0 2.047-0.917 2.047-2.047v0-2.73c0-1.131-0.917-2.047-2.047-2.047-0 0-0 0-0.001 0h-0.682v-17.019l3.877-3.672c0.266 0.134 0.579 0.212 0.91 0.212 1.137 0 2.059-0.922 2.059-2.059s-0.922-2.059-2.059-2.059c-1.137 0-2.059 0.922-2.059 2.059 0 0.316 0.071 0.615 0.198 0.882l-0.005-0.012-2.921 2.769v-1.575c0-1.131-0.917-2.047-2.047-2.047v0h-27.298c-0 0-0 0-0.001 0-1.131 0-2.047 0.917-2.047 2.047 0 0 0 0 0 0.001v-0 20.473h-0.682c-1.131 0-2.047 0.917-2.047 2.047 0 0 0 0 0 0.001v-0 2.73c0 1.131 0.917 2.047 2.047 2.047v0zM38.9 1.708c0.377 0 0.683 0.306 0.683 0.683s-0.306 0.683-0.683 0.683v0c-0.377 0-0.683-0.306-0.683-0.683s0.306-0.683 0.683-0.683v0zM4.095 4.438c0-0.378 0.305-0.682 0.682-0.682h27.298c0.377 0 0.682 0.305 0.682 0.682v2.866l-1.365 1.297v-2.798c0-0.377-0.305-0.682-0.682-0.682h-24.569c-0.377 0-0.682 0.305-0.682 0.682v17.061c0 0.378 0.305 0.683 0.682 0.683h24.569c0.377 0 0.682-0.306 0.682-0.683v-12.385l1.365-1.293v15.726h-28.663v-20.473zM10.237 13.309c-0.002 0-0.004 0-0.006 0-1.131 0-2.047 0.917-2.047 2.047s0.917 2.047 2.047 2.047c0.553 0 1.055-0.219 1.424-0.576l-0.001 0.001 2.372 1.191c0.275 0.138 0.61 0.073 0.815-0.157l5.042-5.674 4.957 3.715c0.266 0.199 0.638 0.178 0.878-0.051l4.308-4.081v10.41h-23.203v-15.696h23.204v3.406l-4.829 4.573-5-3.748c-0.113-0.085-0.255-0.136-0.409-0.136-0.202 0-0.384 0.088-0.509 0.228l-0.001 0.001-5.112 5.752-1.911-0.956c0.014-0.082 0.023-0.165 0.026-0.248-0-1.13-0.917-2.047-2.047-2.047h-0zM10.92 15.357c0 0.377-0.306 0.683-0.683 0.683s-0.683-0.306-0.683-0.683v0c0-0.377 0.306-0.683 0.683-0.683s0.683 0.306 0.683 0.683v0zM15.014 26.276h6.825v0.682c0 0.377-0.305 0.682-0.682 0.682h-5.46c-0.377 0-0.682-0.306-0.682-0.682v0-0.682zM1.365 26.959c0-0.377 0.306-0.682 0.682-0.682h11.602v0.682c0 0 0 0 0 0.001 0 1.131 0.917 2.047 2.047 2.047h5.46c1.131 0 2.047-0.917 2.047-2.047 0-0 0-0 0-0.001v0-0.682h11.601c0.378 0 0.683 0.305 0.683 0.682v2.73c0 0.376-0.306 0.682-0.683 0.682h-32.757c-0.377 0-0.682-0.306-0.682-0.682v0-2.73z"></path>
</symbol>
<symbol id="facebook" viewBox="0 0 18 32">
<path fill="#f4f4fd" style="fill: var(--color3, #f4f4fd)" d="M13.34 5.316h2.921v-5.090c-1.238-0.144-2.673-0.226-4.127-0.226-0.046 0-0.092 0-0.138 0l0.007-0c-4.214 0-7.097 2.651-7.097 7.523v4.482h-4.652v5.691h4.65v14.319h5.701v-14.317h4.462l0.708-5.693h-5.172v-3.922c0.002-1.645 0.444-2.769 2.737-2.769z"></path>
</symbol>
<symbol id="instagram" viewBox="0 0 32 32">
<path fill="#f4f4fd" style="fill: var(--color1, #f4f4fd)" d="M31.969 9.408c-0.075-1.7-0.35-2.869-0.744-3.882-0.406-1.075-1.031-2.038-1.85-2.838-0.8-0.813-1.769-1.444-2.832-1.844-1.019-0.394-2.182-0.669-3.882-0.744-1.713-0.081-2.257-0.1-6.601-0.1s-4.888 0.019-6.595 0.094c-1.7 0.075-2.869 0.35-3.882 0.744-1.075 0.406-2.038 1.031-2.838 1.85-0.813 0.8-1.444 1.769-1.844 2.832-0.394 1.019-0.669 2.182-0.744 3.882-0.081 1.713-0.1 2.257-0.1 6.601s0.019 4.888 0.094 6.595c0.075 1.7 0.35 2.869 0.744 3.882 0.406 1.075 1.038 2.038 1.85 2.838 0.8 0.813 1.769 1.444 2.832 1.844 1.019 0.394 2.182 0.669 3.882 0.744 1.706 0.075 2.25 0.094 6.595 0.094s4.888-0.018 6.595-0.094c1.7-0.075 2.869-0.35 3.882-0.744 2.151-0.831 3.851-2.532 4.682-4.682 0.394-1.019 0.669-2.182 0.744-3.882 0.075-1.707 0.094-2.251 0.094-6.595s-0.006-4.888-0.081-6.595zM29.087 22.473c-0.069 1.563-0.331 2.407-0.55 2.969-0.538 1.394-1.644 2.501-3.038 3.038-0.563 0.219-1.413 0.481-2.969 0.55-1.688 0.075-2.194 0.094-6.464 0.094s-4.782-0.018-6.464-0.094c-1.563-0.069-2.407-0.331-2.969-0.55-0.694-0.256-1.325-0.663-1.838-1.194-0.531-0.519-0.938-1.144-1.194-1.838-0.219-0.563-0.481-1.413-0.55-2.969-0.075-1.688-0.094-2.194-0.094-6.464s0.019-4.782 0.094-6.464c0.069-1.563 0.331-2.407 0.55-2.969 0.256-0.694 0.663-1.325 1.2-1.838 0.519-0.531 1.144-0.938 1.838-1.194 0.563-0.219 1.413-0.481 2.969-0.55 1.688-0.075 2.194-0.094 6.464-0.094 4.276 0 4.782 0.019 6.464 0.094 1.563 0.069 2.407 0.331 2.969 0.55 0.694 0.256 1.325 0.662 1.838 1.194 0.531 0.519 0.938 1.144 1.194 1.838 0.219 0.563 0.481 1.413 0.55 2.969 0.075 1.688 0.094 2.194 0.094 6.464s-0.019 4.77-0.094 6.457z"></path>
<path fill="#f4f4fd" style="fill: var(--color1, #f4f4fd)" d="M16.059 7.782c-4.538 0-8.22 3.682-8.22 8.22s3.682 8.22 8.22 8.22c4.538 0 8.22-3.682 8.22-8.22s-3.682-8.22-8.22-8.22zM16.059 21.335c-2.944 0-5.332-2.388-5.332-5.332s2.388-5.332 5.332-5.332c2.944 0 5.332 2.388 5.332 5.332s-2.388 5.332-5.332 5.332z"></path>
<path fill="#f4f4fd" style="fill: var(--color1, #f4f4fd)" d="M26.524 7.457c0 1.060-0.859 1.919-1.919 1.919s-1.919-0.859-1.919-1.919c0-1.060 0.859-1.919 1.919-1.919s1.919 0.859 1.919 1.919z"></path>
</symbol>
<symbol id="linkedin" viewBox="0 0 32 32">
<path fill="#f4f4fd" style="fill: var(--color3, #f4f4fd)" d="M32.007 32.015h0.008v-11.745c0-5.743-1.237-10.169-7.952-10.169-3.227 0-5.394 1.773-6.279 3.452h-0.094v-2.913h-6.365v21.376h6.631v-10.585c0-2.785 0.528-5.479 3.978-5.479 3.402 0 3.452 3.179 3.452 5.659v10.405h6.623zM0.528 10.641h6.637v21.374h-6.637v-21.374zM3.844 0c-2.121 0-3.842 1.721-3.842 3.842s1.721 3.882 3.842 3.882c2.123 0 3.846-1.761 3.846-3.882s-1.727-3.842-3.848-3.842z"></path>
</symbol>
<symbol id="logo1" viewBox="0 0 59 32">
<path fill="#8e8f99" style="fill: var(--color4, #8e8f99)" d="M21.715 4.003l4.005 3.815-7.433-0.003v18.509h19.429v-7.077l4 3.811v-19.055h-20zM37.539 18.798l-11.355-10.817h11.355v10.817zM34.014 23.616h-12.653v-12.448h0.894v11.606h11.759v0.843zM23.884 29.753l-0.471-0.97h-0.389l0.683 1.283v0.748h0.353v-0.748l0.684-1.283h-0.388l-0.471 0.97zM25.622 28.783h0.083l0.767 2.031h-0.368l-0.165-0.475h-0.786l-0.164 0.475h-0.367l0.765-2.031h0.234zM25.25 30.061h0.595l-0.297-0.862-0.297 0.862zM27.704 29.724c-0.006-0.007-0.020-0.025-0.035-0.044l-0.009-0.013c-0.045-0.058-0.086-0.123-0.119-0.193l-0.003-0.006c-0.027-0.059-0.043-0.128-0.043-0.201 0-0 0-0 0-0v0c0-0.106 0.022-0.197 0.065-0.273s0.107-0.136 0.183-0.175l0.003-0.001c0.080-0.042 0.174-0.063 0.28-0.063 0.103 0 0.193 0.021 0.267 0.063 0.141 0.075 0.236 0.22 0.236 0.388 0 0.063-0.013 0.123-0.037 0.177l0.001-0.003c-0.025 0.056-0.058 0.104-0.097 0.145l0-0c-0.043 0.045-0.089 0.086-0.139 0.123l-0.003 0.002-0.141 0.103 0.402 0.474c0.055-0.106 0.088-0.232 0.088-0.365 0-0.005-0-0.010-0-0.015v0.001h0.29c0 0.099-0.010 0.192-0.029 0.28-0.027 0.128-0.079 0.241-0.15 0.338l0.002-0.002 0.297 0.351h-0.389l-0.118-0.139c-0.060 0.046-0.128 0.085-0.203 0.113l-0.005 0.002c-0.092 0.033-0.198 0.053-0.308 0.053-0.003 0-0.005 0-0.008-0h0c-0.135 0-0.251-0.025-0.35-0.074-0.095-0.046-0.173-0.116-0.227-0.201l-0.001-0.002c-0.050-0.082-0.080-0.181-0.080-0.288 0-0.003 0-0.007 0-0.010v0c0-0.083 0.017-0.155 0.051-0.217 0.035-0.063 0.082-0.122 0.141-0.177 0.055-0.050 0.118-0.099 0.189-0.149zM27.871 29.928l-0.042 0.030c-0.043 0.033-0.079 0.071-0.109 0.114l-0.001 0.002c-0.036 0.053-0.057 0.118-0.057 0.188 0 0.057 0.014 0.11 0.039 0.157l-0.001-0.002c0.027 0.049 0.065 0.088 0.112 0.115l0.001 0.001c0.050 0.027 0.109 0.042 0.172 0.042 0.004 0 0.007-0 0.011-0h-0.001c0.077 0 0.152-0.017 0.225-0.051 0.039-0.020 0.073-0.041 0.104-0.066l-0.001 0.001-0.451-0.531zM27.951 29.557l0.125-0.083c0.050-0.031 0.091-0.069 0.125-0.113l0.001-0.001c0.024-0.038 0.038-0.084 0.038-0.133 0-0.003-0-0.007-0-0.010v0c-0.004-0.109-0.093-0.196-0.202-0.196-0.004 0-0.008 0-0.012 0l0.001-0c-0.002-0-0.004-0-0.006-0-0.083 0-0.154 0.049-0.187 0.119l-0.001 0.001c-0.015 0.034-0.024 0.074-0.024 0.115 0 0.049 0.012 0.095 0.034 0.135l-0.001-0.002c0.021 0.044 0.050 0.090 0.088 0.138l0.023 0.030zM31.506 30.153h-0.349c-0.008 0.083-0.031 0.159-0.066 0.228l0.002-0.004c-0.032 0.060-0.080 0.108-0.139 0.137l-0.002 0.001c-0.064 0.030-0.14 0.048-0.22 0.048-0.008 0-0.015-0-0.022-0l0.001 0c-0.003 0-0.008 0-0.012 0-0.073 0-0.142-0.018-0.202-0.050l0.002 0.001c-0.060-0.034-0.109-0.081-0.144-0.137l-0.001-0.002c-0.038-0.061-0.066-0.133-0.083-0.209l-0.001-0.004c-0.017-0.081-0.027-0.173-0.027-0.268 0-0.004 0-0.007 0-0.011v0.001-0.171c0-0.109 0.010-0.204 0.029-0.288 0.021-0.085 0.051-0.155 0.091-0.213 0.038-0.056 0.088-0.1 0.146-0.13l0.002-0.001c0.058-0.028 0.126-0.045 0.198-0.045 0.004 0 0.008 0 0.012 0h-0.001c0.097 0 0.177 0.017 0.237 0.050s0.106 0.080 0.137 0.143c0.031 0.062 0.052 0.137 0.061 0.224h0.349c-0.012-0.135-0.053-0.257-0.117-0.365l0.002 0.004c-0.062-0.105-0.15-0.189-0.256-0.245l-0.003-0.002c-0.112-0.057-0.244-0.090-0.384-0.090-0.009 0-0.018 0-0.027 0l0.001-0c-0.127 0-0.242 0.023-0.345 0.067s-0.189 0.109-0.261 0.194c-0.073 0.085-0.13 0.186-0.166 0.296l-0.002 0.006c-0.038 0.118-0.057 0.25-0.057 0.396v0.169c0 0.146 0.019 0.278 0.056 0.396s0.093 0.219 0.165 0.303c0.071 0.083 0.158 0.147 0.258 0.193 0.101 0.045 0.214 0.067 0.339 0.067 0.163 0 0.303-0.030 0.417-0.089s0.203-0.141 0.266-0.245c0.063-0.104 0.101-0.223 0.111-0.355zM33.443 29.854v-0.111c0-0.153-0.020-0.291-0.061-0.411-0.038-0.12-0.097-0.224-0.172-0.313l0.001 0.001c-0.072-0.084-0.161-0.15-0.262-0.195l-0.005-0.002c-0.103-0.046-0.217-0.069-0.343-0.069-0.125 0-0.239 0.023-0.342 0.069-0.103 0.045-0.191 0.11-0.267 0.197-0.074 0.086-0.131 0.19-0.173 0.311-0.039 0.117-0.062 0.253-0.062 0.393 0 0.006 0 0.013 0 0.019v-0.001 0.111c0 0.154 0.021 0.291 0.062 0.413 0.040 0.12 0.1 0.223 0.176 0.312l-0.001-0.001c0.075 0.086 0.165 0.151 0.266 0.197 0.103 0.045 0.217 0.067 0.342 0.067s0.24-0.023 0.343-0.067c0.103-0.046 0.192-0.111 0.265-0.197 0.074-0.086 0.131-0.189 0.171-0.311s0.060-0.259 0.060-0.413zM33.093 29.74v0.114c0 0.114-0.011 0.214-0.034 0.302-0.019 0.084-0.052 0.158-0.096 0.224l0.002-0.002c-0.039 0.057-0.091 0.103-0.151 0.134l-0.002 0.001c-0.058 0.028-0.127 0.045-0.199 0.045-0.003 0-0.007-0-0.010-0h0c-0.003 0-0.006 0-0.009 0-0.072 0-0.14-0.016-0.201-0.046l0.003 0.001c-0.063-0.033-0.115-0.079-0.155-0.134l-0.001-0.001c-0.044-0.063-0.077-0.137-0.097-0.217l-0.001-0.005c-0.022-0.086-0.034-0.184-0.034-0.286 0-0.006 0-0.011 0-0.017v0.001-0.114c0-0.113 0.011-0.213 0.034-0.3s0.054-0.16 0.096-0.219c0.040-0.056 0.092-0.102 0.153-0.133l0.002-0.001c0.058-0.029 0.126-0.046 0.199-0.046 0.003 0 0.006 0 0.008 0h-0c0.077 0 0.146 0.015 0.208 0.046s0.113 0.074 0.154 0.134c0.043 0.058 0.075 0.131 0.097 0.219 0.023 0.087 0.034 0.187 0.034 0.3z"></path>
</symbol>
<symbol id="Logo2" viewBox="0 0 59 32">
<path fill="#8e8f99" style="fill: var(--color4, #8e8f99)" d="M28.637 3.394h-0.078c-0.12-0.007-0.24-0.010-0.36-0.013h-0.26c-0.227 0-0.458 0.006-0.688 0.017-0.008-0.001-0.017-0.001-0.026-0.001s-0.018 0-0.027 0.001l0.001-0c-2.206 0.129-4.255 0.68-6.106 1.575l0.096-0.042-0.247 0.119v12.653l0.578-0.197c0.507-0.174 1.048-0.331 1.607-0.477 1.382-0.37 2.973-0.593 4.612-0.614l0.013-0v1.662c-0.207 0.001-0.407 0.007-0.609 0.017h-0.048c-1.299 0.073-2.516 0.268-3.688 0.575l0.129-0.029c-1.61 0.409-3.022 0.976-4.333 1.7l0.093-0.047v-16.227c1.281-0.761 2.762-1.382 4.331-1.784l0.118-0.026c1.256-0.338 2.7-0.535 4.189-0.541h0.247c0.292 0.007 0.577 0.021 0.845 0.041 0.705 0.050 1.403 0.161 2.089 0.333v1.636c-0.583-0.143-1.274-0.251-1.981-0.303l-0.042-0.002-0.042-0.003c-0.141-0.012-0.282-0.024-0.414-0.024zM31.517 5.066c0.363 0.028 0.739 0.041 1.119 0.041 1.569-0.006 3.086-0.212 4.533-0.594l-0.125 0.028c1.61-0.411 3.020-0.977 4.331-1.701l-0.094 0.047v15.937c-1.281 0.761-2.762 1.381-4.331 1.783l-0.118 0.026c-1.257 0.337-2.7 0.533-4.189 0.539h-0.004c-0.031 0-0.067 0-0.103 0-1.093 0-2.153-0.137-3.166-0.394l0.089 0.019v-16.041c0.246 0.057 0.499 0.109 0.756 0.153 0.422 0.071 0.867 0.123 1.301 0.155zM39.628 5.19l-0.578 0.194c-0.531 0.179-1.069 0.339-1.607 0.481-1.44 0.385-3.094 0.61-4.8 0.616h-0.004c-0.377 0-0.724-0.010-1.059-0.032l-0.461-0.030v13.016l0.396 0.034c0.367 0.033 0.746 0.049 1.127 0.049 1.347-0.006 2.649-0.184 3.89-0.514l-0.107 0.024c1.134-0.288 2.118-0.652 3.051-1.104l-0.094 0.041 0.247-0.119v-12.656z"></path>
<path fill="#8e8f99" style="fill: var(--color4, #8e8f99)" d="M20.422 25.839c-0.155-0.161-0.373-0.261-0.613-0.261-0.011 0-0.021 0-0.032 0.001l0.002-0c-0.004-0-0.008-0-0.013-0-0.129 0-0.252 0.026-0.365 0.072l0.006-0.002c-0.22 0.088-0.39 0.26-0.474 0.475l-0.002 0.006c-0.046 0.114-0.068 0.236-0.066 0.359v2.168c-0.006 0.153 0.024 0.305 0.085 0.445 0.051 0.111 0.125 0.21 0.217 0.291 0.086 0.073 0.188 0.126 0.297 0.154 0.106 0.029 0.215 0.045 0.324 0.045 0.121 0.001 0.24-0.025 0.35-0.075 0.325-0.145 0.548-0.465 0.549-0.837v-0.242h-0.567v0.193c0 0.004 0 0.009 0 0.013 0 0.065-0.012 0.127-0.035 0.183l0.001-0.003c-0.019 0.048-0.047 0.089-0.082 0.122l-0 0c-0.065 0.050-0.147 0.081-0.237 0.083h-0c-0.010 0.001-0.021 0.002-0.033 0.002-0.095 0-0.18-0.046-0.232-0.118l-0.001-0.001c-0.048-0.076-0.076-0.169-0.076-0.269 0-0.008 0-0.015 0-0.023l-0 0.001v-2.022c-0.003-0.112 0.021-0.223 0.070-0.324 0.052-0.080 0.142-0.133 0.244-0.133 0.012 0 0.023 0.001 0.035 0.002l-0.001-0c0.003-0 0.007-0 0.011-0 0.099 0 0.187 0.048 0.242 0.122l0.001 0.001c0.059 0.076 0.094 0.173 0.094 0.279 0 0.004-0 0.009-0 0.013v-0.001 0.187h0.561v-0.221c0-0.003 0-0.006 0-0.010 0-0.133-0.025-0.26-0.072-0.377l0.002 0.007c-0.044-0.119-0.109-0.22-0.19-0.306l0 0zM23.788 25.815c-0.173-0.147-0.398-0.237-0.644-0.239h-0c-0.115 0-0.23 0.021-0.338 0.061-0.234 0.084-0.418 0.256-0.517 0.475l-0.002 0.006c-0.057 0.132-0.086 0.275-0.083 0.42v2.079c-0.004 0.146 0.025 0.291 0.083 0.426 0.051 0.112 0.126 0.211 0.219 0.291 0.087 0.080 0.189 0.143 0.299 0.183 0.109 0.040 0.223 0.061 0.338 0.061 0.248-0.001 0.474-0.093 0.646-0.245l-0.001 0.001c0.090-0.081 0.163-0.18 0.214-0.291 0.058-0.134 0.086-0.279 0.083-0.426v-2.079c0-0.005 0-0.012 0-0.018 0-0.145-0.031-0.283-0.086-0.408l0.003 0.006c-0.053-0.119-0.125-0.22-0.213-0.304l-0-0zM23.524 28.617c0.001 0.010 0.001 0.021 0.001 0.032 0 0.106-0.044 0.201-0.114 0.269l-0 0c-0.072 0.060-0.165 0.097-0.267 0.097s-0.195-0.037-0.267-0.098l0.001 0c-0.070-0.068-0.114-0.163-0.114-0.268 0-0.012 0.001-0.023 0.002-0.035l-0 0.001v-2.079c-0.001-0.010-0.001-0.021-0.001-0.032 0-0.105 0.044-0.201 0.114-0.268l0-0c0.072-0.060 0.165-0.097 0.267-0.097s0.195 0.037 0.267 0.098l-0.001-0c0.070 0.068 0.114 0.163 0.114 0.268 0 0.011-0 0.023-0.002 0.034l0-0.001v2.080zM28.21 29.546v-3.937h-0.545l-0.716 2.084h-0.010l-0.722-2.083h-0.539v3.936h0.562v-2.394h0.010l0.55 1.693h0.281l0.555-1.693h0.010v2.394h0.562zM31.405 25.885c-0.086-0.097-0.196-0.171-0.318-0.215-0.115-0.039-0.248-0.061-0.386-0.061-0.008 0-0.015 0-0.023 0l0.001-0h-0.835v3.937h0.561v-1.538h0.289c0.175 0.008 0.349-0.029 0.506-0.107 0.129-0.072 0.233-0.175 0.306-0.297l0.002-0.004c0.065-0.105 0.109-0.221 0.129-0.343 0.019-0.124 0.030-0.267 0.030-0.412 0-0.012-0-0.025-0-0.037l0 0.002c0.006-0.189-0.013-0.378-0.055-0.562-0.040-0.142-0.111-0.264-0.207-0.362l0 0zM31.116 27.085c-0.003 0.075-0.021 0.145-0.053 0.208l0.001-0.003c-0.032 0.060-0.082 0.108-0.143 0.137l-0.002 0.001c-0.069 0.032-0.15 0.050-0.235 0.050-0.010 0-0.020-0-0.030-0.001l0.001 0h-0.256v-1.338h0.289c0.008-0 0.017-0.001 0.027-0.001 0.082 0 0.16 0.018 0.229 0.051l-0.003-0.001c0.058 0.034 0.103 0.083 0.131 0.143l0.001 0.002c0.031 0.069 0.047 0.144 0.049 0.219v0.262c0 0.091 0.006 0.186 0 0.27h-0.006zM34.062 25.609h-0.46l-0.867 3.937h0.561l0.165-0.846h0.765l0.165 0.846h0.561l-0.889-3.937zM33.545 28.164l0.276-1.427h0.010l0.274 1.427h-0.561zM37.686 27.98h-0.010l-0.847-2.371h-0.539v3.937h0.561v-2.367h0.011l0.857 2.367h0.528v-3.936h-0.561v2.371zM41.114 25.609l-0.451 1.566h-0.011l-0.451-1.566h-0.593l0.77 2.273v1.663h0.561v-1.663l0.77-2.273h-0.594zM18.857 30.658h0.27v0.758h0.183v-0.759h0.269v-0.155h-0.722v0.156zM21.13 30.502l-0.354 0.914h0.195l0.075-0.208h0.365l0.078 0.208h0.2l-0.363-0.914h-0.195zM21.102 31.054l0.124-0.339 0.124 0.339h-0.249zM23.376 31.079h0.211v0.118c-0.059 0.048-0.135 0.077-0.217 0.077h-0c-0.004 0-0.009 0-0.013 0-0.073 0-0.139-0.034-0.181-0.087l-0-0c-0.043-0.061-0.068-0.136-0.068-0.218 0-0.007 0-0.014 0.001-0.021l-0 0.001c0-0.203 0.088-0.305 0.263-0.305 0.006-0.001 0.013-0.001 0.020-0.001 0.090 0 0.166 0.062 0.187 0.145l0 0.001 0.181-0.035c-0.039-0.178-0.167-0.269-0.387-0.269-0.004-0-0.008-0-0.012-0-0.118 0-0.226 0.045-0.308 0.118l0-0c-0.082 0.081-0.133 0.193-0.133 0.317 0 0.012 0 0.024 0.001 0.036l-0-0.002c-0 0.006-0 0.014-0 0.021 0 0.123 0.044 0.235 0.118 0.322l-0.001-0.001c0.081 0.083 0.194 0.135 0.319 0.135 0.010 0 0.020-0 0.029-0.001l-0.001 0c0.004 0 0.010 0 0.015 0 0.144 0 0.275-0.055 0.373-0.146l-0 0v-0.36h-0.396v0.154zM25.671 30.502h-0.185v0.914h0.64v-0.155h-0.455v-0.759zM27.611 30.502h-0.185v0.914h0.185v-0.914zM29.507 31.112l-0.374-0.61h-0.179v0.914h0.171v-0.597l0.367 0.597h0.184v-0.914h-0.17v0.611zM31.222 31.013h0.455v-0.155h-0.455v-0.2h0.49v-0.156h-0.675v0.914h0.694v-0.155h-0.509v-0.247zM35.379 30.862h-0.36v-0.36h-0.183v0.914h0.183v-0.4h0.36v0.4h0.184v-0.914h-0.184v0.361zM37.103 31.013h0.457v-0.155h-0.457v-0.2h0.491v-0.156h-0.674v0.914h0.693v-0.155h-0.509v-0.247zM39.442 31.014c0.159-0.025 0.24-0.109 0.24-0.254 0.001-0.008 0.002-0.017 0.002-0.026 0-0.073-0.036-0.138-0.091-0.177l-0.001-0c-0.068-0.035-0.147-0.055-0.232-0.055-0.013 0-0.025 0-0.037 0.001l0.002-0h-0.387v0.914h0.184v-0.382h0.036c0.004-0 0.010-0 0.015-0 0.036 0 0.070 0.008 0.101 0.022l-0.002-0.001c0.027 0.017 0.049 0.039 0.065 0.067l0.199 0.29h0.219l-0.111-0.178c-0.050-0.089-0.118-0.163-0.2-0.218l-0.002-0.001zM39.257 30.887h-0.135v-0.229h0.145c0.012-0.001 0.025-0.002 0.039-0.002 0.053 0 0.104 0.009 0.151 0.024l-0.003-0.001c0.025 0.022 0.040 0.054 0.040 0.089 0 0.039-0.019 0.074-0.048 0.096l-0 0c-0.046 0.015-0.098 0.023-0.153 0.023-0.012 0-0.024-0-0.036-0.001l0.002 0zM41.206 31.013h0.455v-0.155h-0.455v-0.2h0.491v-0.156h-0.677v0.914h0.694v-0.155h-0.509v-0.247z"></path>
</symbol>
<symbol id="Logo3" viewBox="0 0 59 32">
<path fill="#8e8f99" style="fill: var(--color4, #8e8f99)" d="M21.035 28.131c0.009 0 0.018 0.002 0.026 0.006s0.016 0.008 0.023 0.013l-0-0 0.126 0.119c-0.099 0.096-0.216 0.172-0.347 0.223l-0.007 0.002c-0.16 0.057-0.331 0.085-0.503 0.081-0.008 0-0.017 0-0.026 0-0.16 0-0.314-0.028-0.457-0.079l0.009 0.003c-0.138-0.049-0.256-0.122-0.357-0.213l0.001 0.001c-0.097-0.090-0.175-0.2-0.228-0.323l-0.002-0.006c-0.051-0.121-0.081-0.262-0.081-0.41 0-0.004 0-0.009 0-0.013v0.001c-0-0.004-0-0.009-0-0.014 0-0.148 0.032-0.289 0.090-0.416l-0.003 0.006c0.055-0.122 0.138-0.234 0.245-0.329 0.107-0.092 0.233-0.165 0.37-0.212l0.008-0.002c0.141-0.048 0.303-0.076 0.471-0.076 0.006 0 0.011 0 0.017 0h-0.001c0.154-0.003 0.309 0.021 0.453 0.069 0.125 0.047 0.24 0.111 0.339 0.19l-0.106 0.127c-0.008 0.009-0.016 0.017-0.026 0.023l-0 0c-0.011 0.006-0.023 0.010-0.037 0.010-0.002 0-0.004-0-0.006-0l0 0c-0.017-0.001-0.033-0.006-0.046-0.014l0 0-0.057-0.034-0.078-0.043c-0.072-0.035-0.156-0.061-0.244-0.075l-0.005-0.001c-0.052-0.008-0.111-0.013-0.172-0.013-0.006 0-0.011 0-0.017 0h0.001c-0.004-0-0.008-0-0.012-0-0.121 0-0.237 0.021-0.345 0.059l0.007-0.002c-0.106 0.037-0.197 0.091-0.275 0.16l0.001-0.001c-0.079 0.074-0.139 0.16-0.178 0.254-0.041 0.095-0.065 0.207-0.065 0.323 0 0.004 0 0.008 0 0.012v-0.001c-0 0.004-0 0.008-0 0.013 0 0.118 0.024 0.23 0.067 0.332l-0.002-0.006c0.081 0.193 0.238 0.34 0.432 0.407l0.005 0.002c0.103 0.037 0.213 0.055 0.325 0.054 0.065 0.001 0.129-0.003 0.193-0.011 0.16-0.016 0.303-0.079 0.418-0.175l-0.001 0.001c0.016-0.013 0.037-0.021 0.060-0.022h0zM24.678 27.535c0.002 0.143-0.027 0.286-0.085 0.419-0.056 0.129-0.137 0.238-0.237 0.325l-0.001 0.001c-0.105 0.093-0.232 0.166-0.373 0.213-0.143 0.048-0.308 0.075-0.479 0.075s-0.336-0.028-0.49-0.079l0.011 0.003c-0.143-0.050-0.267-0.123-0.373-0.215l0.001 0.001c-0.101-0.090-0.182-0.199-0.237-0.323l-0.002-0.006c-0.054-0.124-0.085-0.268-0.085-0.42s0.031-0.296 0.088-0.427l-0.003 0.007c0.054-0.122 0.135-0.234 0.24-0.33 0.106-0.090 0.232-0.16 0.371-0.206 0.309-0.103 0.65-0.103 0.959 0 0.14 0.049 0.267 0.121 0.372 0.214 0.199 0.178 0.324 0.435 0.324 0.721 0 0.009-0 0.018-0 0.026l0-0.001zM24.347 27.535c0.003-0.114-0.017-0.229-0.059-0.337-0.077-0.196-0.234-0.345-0.431-0.409l-0.005-0.001c-0.104-0.035-0.224-0.055-0.349-0.055s-0.244 0.020-0.357 0.058l0.008-0.002c-0.104 0.036-0.193 0.090-0.267 0.16l0-0c-0.073 0.068-0.131 0.152-0.169 0.247l-0.002 0.005c-0.080 0.22-0.080 0.455 0 0.674 0.035 0.093 0.094 0.179 0.17 0.252 0.074 0.069 0.166 0.123 0.267 0.158 0.225 0.072 0.472 0.072 0.697 0 0.101-0.035 0.193-0.089 0.266-0.158 0.076-0.073 0.133-0.159 0.169-0.252 0.042-0.109 0.063-0.223 0.059-0.337zM27.164 27.888l0.033 0.075c0.013-0.027 0.024-0.051 0.037-0.075 0.012-0.026 0.026-0.050 0.041-0.074l0.806-1.251c0.016-0.022 0.030-0.035 0.046-0.040s0.035-0.007 0.054-0.007c0.004 0 0.009 0 0.013 0l-0.001-0h0.238v2.036h-0.282v-1.56c-0.001-0.011-0.001-0.023-0.001-0.035s0-0.025 0.001-0.037l-0 0.002-0.811 1.269c-0.011 0.020-0.027 0.036-0.047 0.046l-0.001 0c-0.020 0.011-0.043 0.017-0.068 0.017-0 0-0.001 0-0.001 0h-0.046c-0.001 0-0.001 0-0.002 0-0.025 0-0.048-0.006-0.069-0.018l0.001 0c-0.020-0.011-0.036-0.026-0.047-0.045l-0-0.001-0.834-1.278v1.634h-0.273v-2.032h0.238c0.003-0 0.006-0 0.010-0 0.020 0 0.039 0.003 0.057 0.007l-0.002-0c0.019 0.008 0.035 0.021 0.044 0.038l0 0 0.823 1.253c0.017 0.023 0.030 0.048 0.041 0.073zM30.198 27.787v0.762h-0.315v-2.033h0.703c0.133-0.002 0.266 0.013 0.393 0.045 0.102 0.025 0.197 0.067 0.278 0.126 0.067 0.052 0.121 0.12 0.156 0.197l0.001 0.003c0.037 0.083 0.055 0.171 0.054 0.26 0 0.003 0 0.006 0 0.009 0 0.185-0.089 0.35-0.227 0.453l-0.001 0.001c-0.079 0.060-0.173 0.106-0.274 0.134l-0.006 0.001c-0.122 0.033-0.251 0.049-0.379 0.047l-0.382-0.006zM30.198 27.569h0.382c0.083 0.001 0.166-0.010 0.245-0.031 0.067-0.019 0.126-0.049 0.178-0.088l-0.001 0.001c0.089-0.071 0.145-0.179 0.145-0.301 0-0.002 0-0.003-0-0.005v0c0-0.006 0.001-0.013 0.001-0.021 0-0.053-0.012-0.103-0.034-0.147l0.001 0.002c-0.027-0.055-0.064-0.102-0.11-0.138l-0.001-0.001c-0.106-0.070-0.235-0.111-0.374-0.111-0.017 0-0.035 0.001-0.052 0.002l0.002-0h-0.382v0.838zM34.437 28.552h-0.249c-0.001 0-0.003 0-0.004 0-0.024 0-0.046-0.007-0.065-0.019l0 0c-0.017-0.012-0.031-0.028-0.041-0.046l-0-0.001-0.214-0.492h-1.078l-0.222 0.491c-0.009 0.019-0.022 0.034-0.039 0.045l-0 0c-0.019 0.013-0.042 0.021-0.067 0.021-0.001 0-0.003-0-0.004-0h-0.249l0.946-2.036h0.328l0.959 2.036zM32.876 27.796h0.89l-0.375-0.829c-0.025-0.053-0.050-0.116-0.069-0.182l-0.002-0.009-0.036 0.106c-0.011 0.033-0.023 0.062-0.034 0.086l-0.373 0.829zM35.801 26.525c0.019 0.009 0.034 0.021 0.047 0.036l0 0 1.381 1.535v-1.581h0.282v2.036h-0.158c-0.002 0-0.004 0-0.006 0-0.021 0-0.041-0.004-0.060-0.012l0.001 0c-0.020-0.010-0.036-0.023-0.050-0.038l-0-0-1.378-1.534c0.001 0.011 0.001 0.023 0.001 0.035s-0 0.025-0.001 0.037l0-0.002v1.513h-0.282v-2.036h0.167c0.019-0.001 0.039 0.002 0.057 0.009zM39.835 27.743v0.809h-0.315v-0.809l-0.872-1.226h0.282c0.002-0 0.005-0 0.007-0 0.023 0 0.044 0.006 0.061 0.018l-0-0c0.017 0.013 0.031 0.029 0.042 0.046l0.546 0.791c0.037 0.052 0.070 0.112 0.094 0.175l0.002 0.005 0.041-0.087c0.015-0.032 0.034-0.063 0.054-0.093l0.538-0.797c0.012-0.017 0.025-0.031 0.041-0.043l0-0c0.017-0.013 0.039-0.020 0.062-0.020 0.002 0 0.004 0 0.006 0h0.285l-0.874 1.232zM27.008 23.099c0.137 0.015 0.276 0.027 0.417 0.038 2.129-0.813 3.929-2.145 5.177-3.828s1.887-3.642 1.838-5.634l-2.345-2.004c0.477 2.121 0.254 4.313-0.645 6.332-0.898 2.018-2.436 3.783-4.441 5.097z"></path>
<path fill="#8e8f99" style="fill: var(--color4, #8e8f99)" d="M26.17 23.005l0.063 0.011c2.143-1.31 3.777-3.138 4.69-5.25s1.065-4.408 0.433-6.594l-3.341-2.854c1.351 2.346 1.895 4.972 1.569 7.572s-1.511 5.068-3.414 7.116zM37.501 16.027c-0.567 2.189-1.946 4.162-3.931 5.629-0.541 0.405-1.152 0.786-1.796 1.112l-0.071 0.033c1.616-0.406 3.102-1.123 4.342-2.097s2.202-2.178 2.811-3.52l-1.354-1.157z"></path>
<path fill="#8e8f99" style="fill: var(--color4, #8e8f99)" d="M36.969 15.705l-1.929-1.648c-0.037 1.879-0.662 3.715-1.811 5.318s-2.779 2.914-4.721 3.796h0.010c0.433 0 0.865-0.022 1.295-0.066 1.815-0.633 3.419-1.64 4.668-2.931s2.104-2.827 2.489-4.469zM26.45 7.115l-2.301-1.969c-2.057 0.679-3.827 1.873-5.077 3.426s-1.922 3.392-1.929 5.277c0.008 2.082 0.828 4.103 2.331 5.742s3.603 2.803 5.967 3.308c2.111-2.198 3.347-4.913 3.528-7.751s-0.702-5.652-2.52-8.032zM42.286 15.402c-0.009-2.47-1.161-4.838-3.206-6.585-2.044-1.747-4.815-2.731-7.706-2.739-0.007-0-0.016-0-0.025-0-1.388 0-2.723 0.227-3.97 0.647l0.088-0.026 14.091 12.039c0.459-0.98 0.727-2.127 0.729-3.337v-0.001z"></path>
</symbol>
<symbol id="Logo4" viewBox="0 0 59 32">
<path fill="#8e8f99" style="fill: var(--color4, #8e8f99)" d="M13.759 12.299h-0.002c-1.363 0-2.469 0.997-2.469 2.225v0.002c0 1.229 1.106 2.225 2.469 2.225h0.002c1.363 0 2.469-0.996 2.469-2.225v-0.002c0-1.229-1.105-2.225-2.469-2.225zM31.978 11.587c-0.003-1.707-0.757-3.343-2.096-4.551-1.339-1.207-3.153-1.887-5.048-1.891-1.894 0.003-3.709 0.683-5.049 1.89s-2.094 2.844-2.097 4.551v9.414s14.288-1.434 14.289-9.412v-0.002zM6.286 24.091c0.003 1.188 0.528 2.326 1.459 3.166s2.194 1.314 3.511 1.317c1.317-0.003 2.579-0.477 3.511-1.317s1.456-1.977 1.46-3.166v-6.549s-9.942 0.998-9.942 6.548zM11.257 25.265c-0.257 0-0.509-0.069-0.723-0.198-0.209-0.125-0.373-0.305-0.476-0.52l-0.003-0.007c-0.063-0.132-0.099-0.286-0.099-0.449 0-0.081 0.009-0.16 0.026-0.236l-0.001 0.007c0.056-0.241 0.182-0.446 0.355-0.6l0.001-0.001c0.181-0.161 0.408-0.275 0.659-0.32l0.008-0.001c0.253-0.046 0.514-0.022 0.752 0.067s0.441 0.239 0.584 0.432c0.143 0.193 0.219 0.42 0.219 0.652 0.001 0.154-0.033 0.308-0.098 0.451s-0.161 0.273-0.282 0.382c-0.119 0.107-0.26 0.194-0.414 0.252l-0.009 0.003c-0.148 0.057-0.319 0.090-0.498 0.090-0.001 0-0.001 0-0.002 0h0v-0.005zM20.348 23.155v2.438h-0.502v-2.438h0.502zM21.32 24.196v0.392h-1.109v-0.392h1.109zM21.436 23.155v0.393h-1.225v-0.393h1.225zM23.73 24.316v0.115c0 0.186-0.025 0.352-0.075 0.499-0.048 0.146-0.121 0.271-0.214 0.379l0.001-0.001c-0.091 0.103-0.201 0.181-0.328 0.236-0.12 0.052-0.259 0.082-0.405 0.082-0.005 0-0.011-0-0.016-0h0.001c-0.153 0-0.293-0.027-0.42-0.082-0.129-0.057-0.238-0.136-0.327-0.235l-0.001-0.001c-0.093-0.106-0.167-0.232-0.214-0.369l-0.002-0.008c-0.048-0.142-0.076-0.306-0.076-0.477 0-0.008 0-0.016 0-0.023v0.001-0.115c0-0.186 0.025-0.353 0.075-0.499 0.048-0.145 0.121-0.271 0.214-0.378l-0.001 0.001c0.093-0.104 0.202-0.183 0.328-0.238 0.127-0.055 0.267-0.082 0.421-0.082 0.154 0 0.294 0.027 0.42 0.082 0.127 0.055 0.237 0.134 0.328 0.238 0.093 0.104 0.164 0.229 0.214 0.377 0.051 0.146 0.077 0.312 0.077 0.498zM23.223 24.432v-0.119c0-0.129-0.011-0.243-0.035-0.341-0.021-0.094-0.057-0.177-0.106-0.251l0.002 0.003c-0.042-0.064-0.099-0.115-0.165-0.15l-0.002-0.001c-0.063-0.032-0.137-0.052-0.216-0.052-0.003 0-0.007 0-0.010 0h0c-0.085 0-0.16 0.017-0.226 0.051-0.068 0.037-0.124 0.088-0.165 0.149l-0.001 0.002c-0.046 0.071-0.081 0.154-0.101 0.243l-0.001 0.005c-0.022 0.096-0.035 0.206-0.035 0.32 0 0.008 0 0.015 0 0.022v-0.001 0.119c0 0.129 0.011 0.242 0.035 0.342 0.023 0.098 0.058 0.181 0.104 0.25 0.046 0.067 0.102 0.118 0.167 0.152s0.141 0.052 0.226 0.052c0.085 0 0.16-0.017 0.226-0.051 0.068-0.037 0.124-0.088 0.165-0.151l0.001-0.002c0.045-0.069 0.079-0.151 0.102-0.25 0.022-0.097 0.035-0.207 0.035-0.321 0-0.007-0-0.014-0-0.022v0.001zM25.36 24.954c0-0.002 0-0.003 0-0.005 0-0.040-0.007-0.079-0.021-0.114l0.001 0.002c-0.015-0.039-0.039-0.072-0.070-0.097l-0-0c-0.042-0.034-0.090-0.064-0.142-0.087l-0.004-0.002c-0.065-0.030-0.146-0.061-0.228-0.086l-0.015-0.004c-0.128-0.041-0.232-0.082-0.334-0.128l0.019 0.008c-0.1-0.045-0.186-0.097-0.264-0.158l0.003 0.002c-0.072-0.057-0.131-0.127-0.175-0.206l-0.002-0.004c-0.040-0.077-0.064-0.168-0.064-0.264 0-0.004 0-0.008 0-0.012v0.001c-0-0.002-0-0.005-0-0.008 0-0.098 0.025-0.191 0.068-0.271l-0.002 0.003c0.045-0.084 0.107-0.155 0.187-0.214 0.080-0.061 0.175-0.107 0.285-0.139 0.111-0.032 0.231-0.049 0.363-0.049 0.179 0 0.337 0.033 0.47 0.097s0.238 0.154 0.311 0.266c0.074 0.113 0.112 0.242 0.112 0.387h-0.499c0-0.003 0-0.006 0-0.009 0-0.066-0.017-0.127-0.046-0.181l0.001 0.002c-0.031-0.056-0.076-0.1-0.132-0.128l-0.002-0.001c-0.060-0.030-0.132-0.047-0.207-0.047-0.006 0-0.012 0-0.019 0l0.001-0c-0.005-0-0.011-0-0.017-0-0.072 0-0.141 0.015-0.204 0.042l0.003-0.001c-0.054 0.022-0.099 0.059-0.131 0.105l-0.001 0.001c-0.027 0.040-0.043 0.090-0.043 0.143 0 0.002 0 0.003 0 0.005v-0c0 0.041 0.010 0.079 0.030 0.112 0.025 0.037 0.057 0.069 0.093 0.093l0.001 0.001c0.041 0.029 0.091 0.057 0.152 0.082s0.13 0.051 0.209 0.075c0.133 0.040 0.25 0.085 0.35 0.135s0.186 0.106 0.254 0.169c0.069 0.063 0.119 0.133 0.154 0.213s0.051 0.169 0.051 0.27c0 0.007 0 0.015 0 0.023 0 0.194-0.095 0.366-0.24 0.473l-0.002 0.001c-0.078 0.058-0.171 0.102-0.279 0.132s-0.229 0.046-0.363 0.046c-0.12 0-0.239-0.016-0.357-0.047-0.122-0.033-0.228-0.083-0.324-0.148l0.004 0.002c-0.094-0.064-0.17-0.147-0.226-0.244l-0.002-0.004c-0.057-0.101-0.085-0.219-0.085-0.357h0.504c0 0.076 0.011 0.14 0.035 0.193 0.023 0.051 0.056 0.094 0.098 0.126l0.001 0.001c0.044 0.032 0.095 0.056 0.151 0.070l0.003 0.001c0.060 0.015 0.126 0.022 0.197 0.022 0.006 0 0.012 0 0.019 0 0.070 0 0.138-0.014 0.199-0.038l-0.004 0.001c0.099-0.040 0.167-0.135 0.167-0.246 0-0.001 0-0.003-0-0.004v0zM27.294 23.155v2.438h-0.501v-2.438h0.501zM28.044 23.155v0.393h-1.989v-0.393h1.989zM29.966 25.2v0.392h-1.297v-0.392h1.297zM28.833 23.155v2.438h-0.503v-2.438h0.503zM29.797 24.147v0.382h-1.129v-0.382h1.129zM29.965 23.155v0.393h-1.296v-0.393h1.296zM30.259 23.155h0.909c0.187 0 0.347 0.028 0.481 0.083 0.135 0.056 0.239 0.139 0.311 0.248s0.109 0.244 0.109 0.403c0 0.131-0.022 0.243-0.067 0.337-0.044 0.093-0.107 0.171-0.184 0.232l-0.001 0.001c-0.080 0.061-0.173 0.111-0.273 0.145l-0.007 0.002-0.159 0.084h-0.79l-0.003-0.392h0.587c0.005 0 0.011 0 0.017 0 0.074 0 0.144-0.017 0.206-0.048l-0.003 0.001c0.056-0.030 0.101-0.075 0.13-0.129l0.001-0.002c0.029-0.054 0.045-0.118 0.045-0.185 0-0.003-0-0.006-0-0.010v0c0-0.003 0-0.007 0-0.011 0-0.070-0.016-0.135-0.045-0.194l0.001 0.003c-0.029-0.057-0.075-0.102-0.131-0.13l-0.002-0.001c-0.061-0.029-0.132-0.046-0.207-0.046-0.006 0-0.011 0-0.017 0l0.001-0h-0.407v2.045h-0.502v-2.438zM31.622 25.592l-0.555-1.087 0.53-0.003 0.563 1.067v0.023h-0.537zM34.259 24.724h-0.621v-0.392h0.621c0.006 0 0.013 0 0.020 0 0.078 0 0.151-0.017 0.217-0.049l-0.003 0.001c0.057-0.030 0.103-0.076 0.131-0.133l0.001-0.002c0.026-0.058 0.041-0.126 0.041-0.197s-0.015-0.139-0.043-0.201l0.001 0.003c-0.029-0.063-0.074-0.115-0.131-0.15l-0.001-0.001c-0.062-0.036-0.137-0.058-0.216-0.058-0.006 0-0.013 0-0.019 0l0.001-0h-0.447v2.045h-0.502v-2.438h0.949c0.191 0 0.354 0.034 0.491 0.104 0.137 0.068 0.242 0.162 0.314 0.283s0.109 0.258 0.109 0.413c0 0.158-0.036 0.294-0.109 0.409s-0.177 0.204-0.314 0.266c-0.137 0.063-0.3 0.094-0.491 0.094zM37.155 25.2v0.392h-1.297v-0.392h1.297zM36.022 23.155v2.438h-0.503v-2.438h0.503zM36.986 24.147v0.382h-1.128v-0.382h1.129zM37.153 23.155v0.393h-1.295v-0.393h1.295zM38.572 23.155v2.438h-0.501v-2.438h0.501zM39.321 23.155v0.393h-1.989v-0.393h1.989zM41.243 25.2v0.392h-1.297v-0.392h1.297zM40.11 23.155v2.438h-0.502v-2.438h0.502zM41.074 24.147v0.382h-1.128v-0.382h1.128zM41.241 23.155v0.393h-1.295v-0.393h1.295zM41.536 23.155h0.909c0.187 0 0.347 0.028 0.481 0.083s0.239 0.139 0.311 0.248c0.072 0.109 0.109 0.244 0.109 0.403 0 0.131-0.023 0.243-0.067 0.337s-0.107 0.171-0.184 0.232l-0.001 0.001c-0.080 0.061-0.173 0.111-0.273 0.145l-0.007 0.002-0.159 0.084h-0.79l-0.003-0.392h0.588c0.005 0 0.010 0 0.016 0 0.074 0 0.144-0.017 0.206-0.048l-0.003 0.001c0.056-0.030 0.101-0.075 0.13-0.129l0.001-0.002c0.029-0.054 0.046-0.118 0.046-0.186 0-0.003-0-0.006-0-0.008v0c0-0.003 0-0.007 0-0.010 0-0.070-0.016-0.136-0.045-0.195l0.001 0.003c-0.029-0.057-0.075-0.102-0.13-0.13l-0.002-0.001c-0.061-0.029-0.132-0.046-0.207-0.046-0.006 0-0.011 0-0.017 0l0.001-0h-0.407v2.045h-0.502v-2.438zM42.899 25.592l-0.556-1.087 0.531-0.003 0.562 1.067v0.023h-0.537zM45.002 24.954c0-0.001 0-0.002 0-0.004 0-0.041-0.008-0.080-0.021-0.116l0.001 0.002c-0.015-0.039-0.039-0.072-0.070-0.097l-0-0c-0.042-0.034-0.090-0.064-0.142-0.087l-0.004-0.002c-0.065-0.030-0.145-0.061-0.228-0.086l-0.015-0.004c-0.129-0.041-0.233-0.082-0.334-0.128l0.019 0.008c-0.1-0.045-0.185-0.097-0.264-0.158l0.003 0.002c-0.072-0.057-0.131-0.127-0.175-0.206l-0.002-0.004c-0.040-0.077-0.064-0.168-0.064-0.264 0-0.004 0-0.008 0-0.012v0.001c-0-0.002-0-0.005-0-0.008 0-0.098 0.025-0.191 0.068-0.271l-0.002 0.003c0.045-0.084 0.107-0.155 0.187-0.214 0.080-0.061 0.175-0.107 0.285-0.139 0.111-0.032 0.231-0.049 0.363-0.049 0.179 0 0.337 0.033 0.47 0.097s0.238 0.154 0.311 0.266c0.075 0.113 0.112 0.242 0.112 0.387h-0.499c0-0.003 0-0.006 0-0.009 0-0.066-0.017-0.127-0.046-0.181l0.001 0.002c-0.031-0.056-0.076-0.1-0.132-0.128l-0.002-0.001c-0.060-0.030-0.132-0.047-0.207-0.047-0.006 0-0.012 0-0.019 0l0.001-0c-0.005-0-0.011-0-0.017-0-0.072 0-0.141 0.015-0.204 0.042l0.003-0.001c-0.054 0.022-0.099 0.059-0.13 0.105l-0.001 0.001c-0.027 0.040-0.043 0.090-0.043 0.144 0 0.001 0 0.003 0 0.004v-0c0 0.041 0.010 0.079 0.030 0.112 0.025 0.037 0.057 0.069 0.093 0.093l0.001 0.001c0.041 0.029 0.091 0.057 0.152 0.082s0.13 0.051 0.209 0.075c0.133 0.040 0.25 0.085 0.35 0.135s0.186 0.106 0.254 0.169c0.069 0.063 0.119 0.133 0.154 0.213s0.051 0.169 0.051 0.27c0 0.007 0 0.015 0 0.023 0 0.194-0.094 0.366-0.24 0.473l-0.002 0.001c-0.078 0.058-0.171 0.102-0.279 0.132s-0.229 0.046-0.363 0.046c-0.121 0-0.24-0.016-0.357-0.047-0.122-0.033-0.228-0.083-0.324-0.148l0.004 0.002c-0.094-0.064-0.171-0.147-0.226-0.244l-0.002-0.004c-0.057-0.101-0.085-0.219-0.085-0.357h0.504c0 0.076 0.011 0.14 0.035 0.193 0.023 0.051 0.056 0.094 0.098 0.126l0.001 0.001c0.044 0.032 0.095 0.056 0.151 0.070l0.003 0.001c0.060 0.015 0.126 0.022 0.198 0.022 0.005 0 0.012 0 0.018 0 0.070 0 0.138-0.014 0.199-0.038l-0.004 0.001c0.099-0.040 0.167-0.135 0.167-0.246 0-0.001 0-0.003-0-0.004v0z"></path>
</symbol>
<symbol id="Logo5" viewBox="0 0 59 32">
<path fill="#8e8f99" style="fill: var(--color4, #8e8f99)" d="M15.31 25.359c0.14 0.157 0.215 0.352 0.211 0.553 0.007 0.131-0.019 0.262-0.075 0.383s-0.143 0.229-0.252 0.315c-0.239 0.162-0.534 0.258-0.851 0.258-0.035 0-0.070-0.001-0.105-0.004l0.005 0h-1.671v-3.504h1.637c0.029-0.002 0.063-0.003 0.097-0.003 0.301 0 0.581 0.088 0.817 0.239l-0.006-0.004c0.105 0.080 0.189 0.181 0.245 0.294s0.080 0.238 0.073 0.362c0.010 0.193-0.058 0.383-0.19 0.535-0.129 0.138-0.3 0.236-0.492 0.273l-0.006 0.001c0.222 0.037 0.422 0.143 0.565 0.299zM13.349 24.83h0.7c0.159 0.011 0.317-0.030 0.445-0.116 0.051-0.041 0.092-0.093 0.119-0.153l0.001-0.003c0.020-0.045 0.032-0.097 0.032-0.152 0-0.012-0.001-0.025-0.002-0.037l0 0.002c0.001-0.009 0.001-0.019 0.001-0.029 0-0.057-0.012-0.11-0.034-0.159l0.001 0.003c-0.028-0.062-0.067-0.114-0.116-0.156l-0.001-0c-0.113-0.075-0.252-0.12-0.401-0.12-0.020 0-0.040 0.001-0.060 0.002l0.003-0h-0.689v0.919zM14.563 26.174c0.055-0.042 0.098-0.096 0.128-0.158l0.001-0.003c0.024-0.049 0.037-0.107 0.037-0.168 0-0.010-0-0.019-0.001-0.028l0 0.001c0.001-0.007 0.001-0.016 0.001-0.025 0-0.063-0.014-0.122-0.040-0.175l0.001 0.002c-0.032-0.065-0.076-0.119-0.13-0.161l-0.001-0.001c-0.121-0.080-0.269-0.128-0.429-0.128-0.016 0-0.033 0-0.049 0.002l0.002-0h-0.734v0.964h0.743c0.167 0.009 0.333-0.034 0.47-0.122zM18.657 26.866l-0.911-1.37h-0.343v1.369h-0.783v-3.504h1.483c0.032-0.002 0.069-0.004 0.107-0.004 0.348 0 0.67 0.113 0.93 0.304l-0.004-0.003c0.207 0.19 0.333 0.441 0.353 0.707s-0.066 0.529-0.242 0.743c-0.183 0.189-0.433 0.315-0.707 0.357l0.97 1.4h-0.851zM17.404 25.019h0.641c0.445 0 0.667-0.177 0.667-0.531 0.001-0.009 0.001-0.019 0.001-0.029 0-0.066-0.014-0.129-0.038-0.187l0.001 0.003c-0.030-0.071-0.073-0.132-0.127-0.181l-0-0c-0.122-0.090-0.275-0.144-0.441-0.144-0.022 0-0.044 0.001-0.065 0.003l0.003-0h-0.649l0.008 1.066zM22.939 26.16h-1.562l-0.276 0.705h-0.821l1.434-3.465h0.888l1.428 3.465h-0.822l-0.27-0.705zM22.73 25.63l-0.571-1.479-0.57 1.479h1.141zM28.299 26.866h-0.777l-1.744-2.383v2.383h-0.776v-3.505h0.776l1.743 2.397v-2.397h0.778v3.504zM32.738 26.027c-0.169 0.27-0.409 0.482-0.693 0.614l-0.010 0.004c-0.338 0.154-0.714 0.23-1.093 0.221h-1.385v-3.504h1.385c0.019-0.001 0.042-0.001 0.064-0.001 0.372 0 0.726 0.080 1.045 0.223l-0.016-0.006c0.298 0.135 0.543 0.349 0.703 0.611 0.16 0.285 0.243 0.6 0.243 0.919-0.001 0.338-0.091 0.655-0.248 0.928l0.005-0.009zM31.848 25.943c0.211-0.216 0.341-0.511 0.344-0.836v-0c-0.003-0.326-0.133-0.62-0.344-0.836l0 0c-0.242-0.188-0.55-0.301-0.884-0.301-0.031 0-0.063 0.001-0.094 0.003l0.004-0h-0.54v2.269h0.54c0.027 0.002 0.058 0.003 0.090 0.003 0.334 0 0.642-0.113 0.887-0.303l-0.003 0.002zM23.426 3.87s10.038 3.412 9.825 8.349v8.351s-10.031-3.414-9.822-8.351l-0.003-8.349zM42.194 18.614c1.895-1.175 4.089-1.903 6.378-2.116v-2.614c-2.638 0.915-4.875 2.574-6.378 4.73z"></path>
<path fill="#8e8f99" style="fill: var(--color4, #8e8f99)" d="M41.056 19.402c1.551-2.813 4.242-4.984 7.517-6.065v-7.533s-14.296 4.86-13.994 11.891v11.889s0.637-0.217 1.639-0.625c0-0.38 0-0.763 0.046-1.149 0.296-3.264 2.019-6.289 4.792-8.409z"></path>
<path fill="#8e8f99" style="fill: var(--color4, #8e8f99)" d="M39.696 23.819c0.084-0.899 0.261-1.726 0.523-2.513l-0.023 0.079c-1.727 1.831-2.772 4.103-2.99 6.497-0.021 0.226-0.032 0.451-0.038 0.685 1.198-0.515 2.101-0.951 2.987-1.418l-0.237 0.114c-0.171-0.73-0.269-1.569-0.269-2.43 0-0.357 0.017-0.709 0.050-1.057l-0.003 0.044zM40.264 23.861c-0.028 0.289-0.044 0.624-0.044 0.963 0 0.763 0.080 1.506 0.233 2.224l-0.012-0.070c3.906-2.104 8.294-5.354 8.125-9.284v-0.343c-2.79 0.282-5.401 1.38-7.432 3.126-0.448 0.989-0.757 2.136-0.868 3.341l-0.003 0.042z"></path>
</symbol>
<symbol id="time" viewBox="0 0 31 32">
<path d="M30.801 15.304c-0.002-8.454-6.857-15.306-15.311-15.304s-15.306 6.856-15.304 15.311c0.002 6.79 4.423 12.546 10.544 14.549l0.108 0.031c0.060 0.019 0.124 0.029 0.187 0.029 0.121 0 0.239-0.032 0.343-0.094 0.135-0.080 0.236-0.207 0.284-0.357l3.866-12.253c1.054-0.004 1.907-0.859 1.907-1.913 0-1.057-0.857-1.913-1.913-1.913-0.303 0-0.59 0.070-0.845 0.196l0.011-0.005-5.107-5.108c-0.115-0.115-0.275-0.187-0.451-0.187-0.352 0-0.638 0.286-0.638 0.638 0 0.176 0.071 0.336 0.187 0.451v0l5.105 5.11c-0.121 0.241-0.191 0.525-0.191 0.826 0 0.602 0.283 1.137 0.723 1.481l0.004 0.003-3.683 11.676c-7.28-2.682-11.007-10.756-8.325-18.036 2.682-7.279 10.757-11.007 18.036-8.325s11.006 10.757 8.325 18.036c-1.345 3.582-4.005 6.407-7.376 7.939l-0.088 0.036-0.398-1.875c-0.063-0.291-0.318-0.505-0.624-0.505-0.163 0-0.312 0.061-0.425 0.162l0.001-0.001-3.838 3.426c-0.132 0.117-0.214 0.287-0.214 0.477 0 0.283 0.185 0.524 0.441 0.607l0.005 0.001 4.9 1.564c0.058 0.020 0.126 0.031 0.196 0.031 0.352 0 0.638-0.285 0.638-0.638 0-0.047-0.005-0.093-0.015-0.137l0.001 0.004-0.391-1.839c5.529-2.375 9.331-7.773 9.331-14.060 0-0.011 0-0.023-0-0.034v0.002zM15.493 14.667c0.352 0 0.638 0.286 0.638 0.638s-0.286 0.638-0.638 0.638v0c-0.352 0-0.638-0.286-0.638-0.638s0.286-0.638 0.638-0.638v0zM17.594 29.534l2.184-1.948 0.603 2.841-2.788-0.892z"></path>
</symbol>
<symbol id="twitter" viewBox="0 0 37 32">
<path fill="#f4f4fd" style="fill: var(--color3, #f4f4fd)" d="M36.588 4.671c-1.257 0.564-2.716 0.981-4.244 1.176l-0.078 0.008c1.555-0.934 2.723-2.376 3.285-4.093l0.015-0.053c-1.369 0.826-2.963 1.456-4.66 1.799l-0.096 0.016c-1.372-1.462-3.317-2.373-5.475-2.373-4.142 0-7.5 3.358-7.501 7.5v0c0 0.595 0.050 1.166 0.174 1.71-6.252-0.316-11.752-3.29-15.43-7.807l-0.031-0.039c-0.643 1.085-1.024 2.391-1.024 3.786 0 2.589 1.31 4.872 3.302 6.223l0.026 0.017c-1.249-0.034-2.411-0.371-3.426-0.941l0.037 0.019v0.082c0.004 3.618 2.558 6.638 5.96 7.361l0.049 0.009c-0.572 0.157-1.23 0.247-1.908 0.247-0.021 0-0.041-0-0.062-0l0.003 0c-0.035 0.001-0.076 0.001-0.118 0.001-0.461 0-0.911-0.047-1.345-0.136l0.043 0.007c0.998 3 3.743 5.14 6.999 5.225l0.010 0c-2.532 1.995-5.767 3.199-9.284 3.199-0.006 0-0.012 0-0.017 0h0.001c-0.615 0-1.205-0.027-1.795-0.103 3.232 2.111 7.188 3.366 11.438 3.366 0.024 0 0.048-0 0.073-0h-0.004c13.803 0 21.349-11.434 21.349-21.345 0-0.332-0.011-0.652-0.027-0.97 1.485-1.071 2.734-2.363 3.725-3.841l0.034-0.054z"></path>
</symbol>
</defs>
</svg>
